# Blender v2.83.1 OBJ File: 'untitled.blend'
# www.blender.org
mtllib Tree4_lod3.mtl
o Tree4.001
v 0.003167 3.988304 -0.003168
v 3.205997 1.271232 -2.079455
v 0.054526 1.310812 3.302472
v -3.136940 1.607891 -2.069819
v -0.033872 4.948740 0.023399
v -2.833463 2.341208 1.659571
v 0.038692 2.437157 -3.266197
v 2.819073 2.382959 1.552601
v -0.035468 6.008967 0.030978
v -2.535325 3.488110 -1.183825
v 2.708445 3.622385 -1.634830
v -0.063040 3.499002 2.985043
v 0.033922 7.118361 -0.035180
v -2.262782 4.883845 1.406829
v 0.109461 4.748026 -2.494634
v 2.269031 4.862969 1.479994
v -0.041593 7.865865 0.040875
v 0.005279 5.478181 2.521243
v -1.914922 5.687264 -1.297307
v 2.142696 5.579157 -1.234935
v -0.050695 8.698910 0.055211
v -1.829054 6.904613 1.134029
v 0.085383 6.812172 -2.198375
v 1.937216 6.933340 1.207076
v -0.105335 -0.004261 -0.298072
v -0.040276 2.058807 -0.033900
v -0.315113 -0.011959 0.438269
v 0.339243 -0.023376 0.285319
v 0.057392 7.833052 1.910812
v 0.041505 10.626259 -0.022045
v 1.604989 7.859404 -0.929563
v -1.406064 7.839255 -1.011520
vt 0.000000 0.000000
vt 0.000000 0.000000
vt 0.000000 0.000000
vt 0.000000 0.000000
vt 0.000000 0.000000
vt 0.000000 0.000000
vt 0.000000 0.000000
vt 0.000000 0.000000
vt 0.000000 0.000000
vt 0.178400 0.139800
vt 0.090700 0.136000
vt 0.091200 0.221400
vt 0.207800 0.080100
vt 0.265400 0.137400
vt 0.210800 0.195400
vt 0.327500 0.195900
vt 0.346700 0.225000
vt 0.402500 0.272200
vt 0.354800 0.324800
vt 0.453600 0.328400
vt 0.616500 0.274800
vt 0.761900 0.273200
vt 0.689300 0.271300
vt 0.000000 0.000000
vt 0.139200 0.577700
vt 0.183600 0.615000
vt 0.147900 0.656200
vt 0.225500 0.658200
vt 0.716000 0.509700
vt 0.831800 0.509500
vt 0.773500 0.507500
vt 0.774400 0.565900
vn 0.8307 0.3200 0.4556
vn -0.8550 0.2918 0.4288
vn 0.0236 0.3236 -0.9459
vn -0.2267 -0.1878 -0.9557
vn 0.9599 -0.0652 0.2728
vn -0.7951 -0.0523 0.6042
vn 0.5219 0.8128 -0.2586
vn -0.8097 -0.3000 -0.5044
vn 0.0146 0.9975 0.0688
vn -0.0391 -0.4600 0.8871
vn -0.7579 -0.4679 0.4547
vn -0.0142 0.9998 0.0160
vn 0.0013 -0.4412 -0.8974
vn 0.7616 -0.4977 0.4151
vn -0.7638 -0.5113 -0.3940
vn -0.0215 0.9998 -0.0041
vn 0.7745 -0.4114 -0.4805
vn 0.0054 -0.5078 0.8615
vn -0.7238 -0.5679 0.3920
vn 0.7502 -0.4124 0.5169
vn -0.0002 0.9983 -0.0578
vn 0.0218 0.7202 -0.6934
vn -0.0192 -0.5423 0.8400
vn -0.0269 0.9992 0.0309
vn -0.7311 -0.4917 -0.4730
vn 0.7177 -0.5438 -0.4350
vn -0.7616 -0.5016 0.4104
vn 0.7859 -0.3398 0.5167
vn -0.0411 0.9991 -0.0118
vn 0.0231 -0.4973 -0.8673
usemtl trees
s off
f 30/1/1 29/2/1 31/3/1
f 30/1/2 32/4/2 29/2/2
f 31/3/3 32/4/3 30/1/3
f 28/5/4 27/6/4 26/7/4
f 27/6/5 25/8/5 26/7/5
f 25/8/6 28/5/6 26/7/6
s 1
f 2/9/7 4/10/8 1/11/9
f 2/9/7 1/11/9 3/12/10
f 6/13/11 5/14/12 7/15/13
f 7/15/13 5/14/12 8/16/14
f 6/13/11 8/16/14 5/14/12
f 10/17/15 9/18/16 11/19/17
f 11/19/17 9/18/16 12/20/18
f 10/17/15 12/20/18 9/18/16
f 14/21/19 16/22/20 13/23/21
f 15/24/22 13/23/21 16/22/20
f 18/25/23 17/26/24 19/27/25
f 18/25/23 20/28/26 17/26/24
f 22/29/27 24/30/28 21/31/29
f 22/29/27 21/31/29 23/32/30
f 23/32/30 21/31/29 24/30/28
f 19/27/25 17/26/24 20/28/26
f 14/21/19 13/23/21 15/24/22
f 3/12/10 1/11/9 4/10/8
